<svg width="310" height="104" viewBox="0 0 310 104" fill="none" xmlns="http://www.w3.org/2000/svg">
<rect width="114" height="104" fill="black"/>
<path d="M39.14 75H48.56V56.52H65.9V75H75.32V32.16H65.9V48.6H48.56V32.16H39.14V75Z" fill="white"/>
<path d="M190.36 29.4V72H184.96V52.62H161.5V72H156.1V29.4H161.5V47.82H184.96V29.4H190.36ZM208.68 72.6C207.2 72.6 205.82 72.36 204.54 71.88C203.26 71.36 202.14 70.66 201.18 69.78C200.26 68.9 199.52 67.88 198.96 66.72C198.44 65.52 198.18 64.22 198.18 62.82C198.18 61.38 198.5 60.08 199.14 58.92C199.78 57.72 200.68 56.7 201.84 55.86C203.04 55.02 204.44 54.36 206.04 53.88C207.68 53.4 209.46 53.16 211.38 53.16C212.9 53.16 214.44 53.3 216 53.58C217.56 53.86 218.94 54.24 220.14 54.72V52.2C220.14 49.64 219.42 47.64 217.98 46.2C216.54 44.72 214.5 43.98 211.86 43.98C208.7 43.98 205.38 45.2 201.9 47.64L200.16 44.22C204.2 41.5 208.26 40.14 212.34 40.14C216.46 40.14 219.66 41.24 221.94 43.44C224.26 45.64 225.42 48.74 225.42 52.74V65.52C225.42 66.76 225.98 67.4 227.1 67.44V72C226.54 72.08 226.08 72.14 225.72 72.18C225.36 72.22 224.98 72.24 224.58 72.24C223.54 72.24 222.7 71.94 222.06 71.34C221.46 70.7 221.1 69.94 220.98 69.06L220.86 66.84C219.46 68.72 217.68 70.16 215.52 71.16C213.4 72.12 211.12 72.6 208.68 72.6ZM210.06 68.64C211.94 68.64 213.68 68.3 215.28 67.62C216.92 66.9 218.16 65.96 219 64.8C219.76 64.04 220.14 63.26 220.14 62.46V57.84C217.58 56.84 214.92 56.34 212.16 56.34C209.52 56.34 207.36 56.9 205.68 58.02C204.04 59.14 203.22 60.6 203.22 62.4C203.22 63.28 203.38 64.1 203.7 64.86C204.06 65.62 204.54 66.28 205.14 66.84C205.78 67.4 206.52 67.84 207.36 68.16C208.2 68.48 209.1 68.64 210.06 68.64ZM251.622 45.3C248.982 45.38 246.642 46.06 244.602 47.34C242.602 48.62 241.182 50.4 240.342 52.68V72H235.062V40.68H239.982V47.94C241.062 45.78 242.482 44.04 244.242 42.72C246.002 41.36 247.882 40.6 249.882 40.44C250.282 40.44 250.622 40.44 250.902 40.44C251.182 40.44 251.422 40.46 251.622 40.5V45.3ZM274.619 45.3C271.979 45.38 269.639 46.06 267.599 47.34C265.599 48.62 264.179 50.4 263.339 52.68V72H258.059V40.68H262.979V47.94C264.059 45.78 265.479 44.04 267.239 42.72C268.999 41.36 270.879 40.6 272.879 40.44C273.279 40.44 273.619 40.44 273.899 40.44C274.179 40.44 274.419 40.46 274.619 40.5V45.3ZM282.496 80.52C283.016 80.6 283.536 80.66 284.056 80.7C284.576 80.74 284.976 80.76 285.256 80.76C285.736 80.76 286.156 80.64 286.516 80.4C286.916 80.2 287.296 79.78 287.656 79.14C288.056 78.5 288.496 77.6 288.976 76.44C289.456 75.32 290.056 73.84 290.776 72L277.516 40.68H282.976L293.656 67.26L303.376 40.68H308.416L293.176 80.22C292.616 81.62 291.676 82.84 290.356 83.88C289.076 84.96 287.296 85.5 285.016 85.5C284.656 85.5 284.276 85.48 283.876 85.44C283.516 85.4 283.056 85.32 282.496 85.2V80.52Z" fill="black"/>
</svg>
