<svg width="35" height="35" viewBox="0 0 35 35" fill="none" xmlns="http://www.w3.org/2000/svg">
<path d="M20.7812 22.9688C20.125 22.9688 19.6875 23.4062 19.6875 24.0625C19.6875 24.7188 20.125 25.1562 20.7812 25.1562C26.25 25.1562 30.625 20.7812 30.625 15.3125C30.625 12.25 28.2187 9.84375 25.1562 9.84375C22.0938 9.84375 19.6875 12.25 19.6875 15.3125C19.6875 18.375 22.0938 20.7812 25.1562 20.7812C25.4844 20.7812 25.9219 20.7812 26.25 20.6719C24.8281 22.0937 22.9688 22.9688 20.7812 22.9688Z" fill="#333333"/>
<path d="M9.84375 20.7812C10.1719 20.7812 10.6094 20.7812 10.9375 20.6719C9.51563 22.0937 7.65625 22.9688 5.46875 22.9688C4.8125 22.9688 4.375 23.4062 4.375 24.0625C4.375 24.7188 4.8125 25.1562 5.46875 25.1562C10.9375 25.1562 15.3125 20.7812 15.3125 15.3125C15.3125 12.25 12.9062 9.84375 9.84375 9.84375C6.78125 9.84375 4.375 12.25 4.375 15.3125C4.375 18.375 6.78125 20.7812 9.84375 20.7812Z" fill="#333333"/>
</svg>
