<svg width="656" height="512" viewBox="0 0 656 512" fill="none" xmlns="http://www.w3.org/2000/svg">
<path d="M316.2 226.824C301.6 223.924 288 235.724 288 250.624V301.024C288 311.224 295.1 319.424 304.7 323.024C322.9 329.824 336 347.424 336 368.024C336 394.524 314.5 416.024 288 416.024C261.5 416.024 240 394.524 240 368.024V120.024C240 106.724 229.3 96.0242 216 96.0242H168C154.7 96.0242 144 106.724 144 120.024V368.024C144 457.524 226.1 528.224 319 508.724C373.4 497.324 417.3 453.324 428.7 399.024C446.1 316.124 391.7 241.824 316.2 226.824ZM353 0.0242364C343.8 -0.475764 336 6.82424 336 16.0242V47.6242C336 56.1242 342.6 63.1242 351 63.5242C480.4 70.5242 584.4 175.524 591.9 305.024C592.4 313.424 599.4 320.024 607.8 320.024H639.9C649.1 320.024 656.4 312.224 655.9 303.024C647.4 139.824 516.2 8.62424 353 0.0242364ZM353.3 96.0242C344 95.3242 336 102.724 336 112.124V144.224C336 152.624 342.5 159.524 350.8 160.124C427.6 166.424 488.8 228.324 495.7 305.324C496.5 313.624 503.3 320.024 511.6 320.024H543.8C553.1 320.024 560.6 312.024 559.9 302.724C551.5 192.624 463.4 104.524 353.3 96.0242Z" fill="black"/>
</svg>
