<svg width="448" height="544" viewBox="0 0 448 544" fill="none" xmlns="http://www.w3.org/2000/svg">
<path fill-rule="evenodd" clip-rule="evenodd" d="M288.081 456H228.407H168.674C168.674 456 168.838 420.578 168.674 396.267C86.9439 413.858 64.1407 351.467 64.1407 351.467C49.2074 321.6 34.2741 306.667 34.2741 306.667C4.40741 288.926 34.2741 291.733 34.2741 291.733C64.1407 291.733 79.0741 321.6 79.0741 321.6C105.282 366.116 151.919 358.948 168.674 351.467C168.674 336.533 175.215 313.954 183.607 306.667C118.379 299.319 64.081 261.867 64.081 187.2C64.081 112.533 79.0741 97.6 94.0074 82.6667C90.9909 75.3045 78.4917 48.096 94.4703 8C94.4703 8 123.814 8 153.681 52.8C168.48 38.0011 213.414 37.8667 228.363 37.8667C243.281 37.8667 288.215 38.0011 303.014 52.8C332.881 8 362.285 8 362.285 8C378.263 48.096 365.764 75.3045 362.748 82.6667C377.681 97.6 392.614 112.533 392.614 187.2C392.614 261.867 338.376 299.319 273.148 306.667C281.54 313.954 288.081 339.669 288.081 351.467V456Z" fill="#141313"/>
</svg>
