<svg width="17" height="26" viewBox="0 0 17 26" fill="none" xmlns="http://www.w3.org/2000/svg">
<path d="M8.00357 13.8978C5.7329 13.8978 3.90137 15.7293 3.90137 18C3.90137 20.2707 5.7329 22.1022 8.00357 22.1022C10.2742 22.1022 12.1058 20.2707 12.1058 18C12.1058 15.7293 10.2742 13.8978 8.00357 13.8978ZM8.00357 20.667C6.53621 20.667 5.33661 19.4709 5.33661 18C5.33661 16.5291 6.53264 15.333 8.00357 15.333C9.47451 15.333 10.6705 16.5291 10.6705 18C10.6705 19.4709 9.47094 20.667 8.00357 20.667ZM13.2304 13.73C13.2304 14.262 12.802 14.6868 12.2736 14.6868C11.7416 14.6868 11.3167 14.2584 11.3167 13.73C11.3167 13.2016 11.7452 12.7732 12.2736 12.7732C12.802 12.7732 13.2304 13.2016 13.2304 13.73ZM15.9473 14.7011C15.8866 13.4194 15.5939 12.2841 14.6549 11.3487C13.7195 10.4133 12.5842 10.1205 11.3025 10.0562C9.98148 9.98126 6.02209 9.98126 4.70111 10.0562C3.42296 10.1169 2.28763 10.4097 1.34866 11.3451C0.409684 12.2805 0.120495 13.4158 0.0562312 14.6975C-0.0187437 16.0185 -0.0187437 19.9779 0.0562312 21.2989C0.116925 22.5806 0.409684 23.7159 1.34866 24.6513C2.28763 25.5867 3.41939 25.8795 4.70111 25.9438C6.02209 26.0187 9.98148 26.0187 11.3025 25.9438C12.5842 25.8831 13.7195 25.5903 14.6549 24.6513C15.5903 23.7159 15.8831 22.5806 15.9473 21.2989C16.0223 19.9779 16.0223 16.0221 15.9473 14.7011ZM14.2408 22.7163C13.9623 23.416 13.4232 23.9552 12.7199 24.2372C11.6666 24.6549 9.16747 24.5585 8.00357 24.5585C6.83968 24.5585 4.33694 24.6513 3.28729 24.2372C2.58753 23.9587 2.04842 23.4196 1.76637 22.7163C1.34866 21.6631 1.44505 19.1639 1.44505 18C1.44505 16.8361 1.35223 14.3334 1.76637 13.2837C2.04485 12.584 2.58396 12.0449 3.28729 11.7628C4.34051 11.3451 6.83968 11.4415 8.00357 11.4415C9.16747 11.4415 11.6702 11.3487 12.7199 11.7628C13.4196 12.0413 13.9587 12.5804 14.2408 13.2837C14.6585 14.3369 14.5621 16.8361 14.5621 18C14.5621 19.1639 14.6585 21.6666 14.2408 22.7163Z" fill="black"/>
<path d="M8.9136 0.956823C8.9136 1.48879 8.4852 1.91365 7.9568 1.91365C7.4248 1.91365 7 1.48522 7 0.956823C7 0.428428 7.4284 0 7.9568 0C8.4852 0 8.9136 0.428428 8.9136 0.956823Z" fill="white"/>
</svg>
