<svg width="386" height="386" viewBox="0 0 386 386" fill="none" xmlns="http://www.w3.org/2000/svg">
<path d="M86.402 386H6.3759V128.288H86.402V386ZM46.3458 93.133C20.7561 93.133 0 71.937 0 46.3469C0 34.0549 4.8829 22.2664 13.5744 13.5747C22.2659 4.883 34.0542 0 46.3458 0C58.6375 0 70.426 4.883 79.117 13.5747C87.809 22.2664 92.692 34.0549 92.692 46.3469C92.692 71.937 71.927 93.133 46.3458 93.133ZM385.914 386H306.06V260.547C306.06 230.649 305.457 192.306 264.453 192.306C222.846 192.306 216.47 224.79 216.47 258.393V386H136.53V128.288H213.282V163.442H214.402C225.086 143.194 251.184 121.825 290.12 121.825C371.111 121.825 386 175.16 386 244.435V386H385.914Z" fill="black"/>
</svg>
