<svg width="1440" height="1024" viewBox="0 0 1440 1024" fill="none" xmlns="http://www.w3.org/2000/svg">
<rect width="1440" height="1024" fill="white"/>
<rect width="1440" height="1024" fill="white"/>
<path opacity="0.9" d="M194.27 437.93L64.73 489.44V519.53L194.27 571.04V541.715L100.685 504.485L194.27 467.255V437.93ZM357.625 483.575C355.33 449.915 326.77 433.595 295.66 433.595C252.82 433.595 228.34 463.94 228.34 504.995C228.34 544.52 255.115 572.57 294.895 572.57C329.575 572.57 353.8 553.445 358.39 518.51H323.455C321.16 534.575 311.47 545.285 294.64 545.285C271.945 545.285 264.55 522.59 264.55 503.72C264.55 484.34 272.2 460.88 295.405 460.88C310.45 460.88 319.885 468.785 322.18 483.575H357.625ZM387.516 503.21C387.516 545.03 414.291 572.57 455.601 572.57C497.166 572.57 523.941 545.03 523.941 503.21C523.941 461.135 497.166 433.595 455.601 433.595C414.291 433.595 387.516 461.135 387.516 503.21ZM423.726 503.21C423.726 482.045 431.121 460.88 455.601 460.88C480.336 460.88 487.731 482.045 487.731 503.21C487.731 524.12 480.336 545.285 455.601 545.285C431.121 545.285 423.726 524.12 423.726 503.21ZM560.235 569H596.445V499.895C596.445 473.12 604.86 462.155 624.495 462.155C641.325 462.155 647.7 472.865 647.7 494.54V569H683.91V487.91C683.91 455.27 674.22 433.595 635.715 433.595C620.415 433.595 604.605 440.735 595.425 455.525H594.66V437.165H560.235V569ZM770.042 397.64H733.832V437.165H711.902V461.39H733.832V539.165C733.832 565.43 753.212 570.53 775.397 570.53C782.537 570.53 790.442 570.275 796.562 569.255V540.95C792.737 541.715 789.167 541.97 785.342 541.97C773.102 541.97 770.042 538.91 770.042 526.67V461.39H796.562V437.165H770.042V397.64ZM908.651 518C908.651 525.905 907.631 548.345 879.326 548.345C867.596 548.345 857.141 545.03 857.141 531.515C857.141 518.255 867.341 514.43 878.561 512.135C889.781 510.095 902.531 509.84 908.651 504.485V518ZM861.221 477.71C862.496 463.43 871.421 457.82 885.191 457.82C897.941 457.82 908.651 460.115 908.651 475.67C908.651 490.46 887.996 489.695 865.811 493.01C843.371 496.07 820.931 503.21 820.931 533.045C820.931 560.075 840.821 572.57 865.811 572.57C881.876 572.57 898.706 568.235 910.181 556.25C910.436 560.585 911.456 564.92 912.731 569H949.451C946.136 563.645 944.861 551.66 944.861 539.675V471.08C944.861 439.46 913.241 433.595 886.976 433.595C857.396 433.595 827.051 443.795 825.011 477.71H861.221ZM1110.92 483.575C1108.63 449.915 1080.07 433.595 1048.96 433.595C1006.12 433.595 981.636 463.94 981.636 504.995C981.636 544.52 1008.41 572.57 1048.19 572.57C1082.87 572.57 1107.1 553.445 1111.69 518.51H1076.75C1074.46 534.575 1064.77 545.285 1047.94 545.285C1025.24 545.285 1017.85 522.59 1017.85 503.72C1017.85 484.34 1025.5 460.88 1048.7 460.88C1063.75 460.88 1073.18 468.785 1075.48 483.575H1110.92ZM1190.79 397.64H1154.58V437.165H1132.65V461.39H1154.58V539.165C1154.58 565.43 1173.96 570.53 1196.15 570.53C1203.29 570.53 1211.19 570.275 1217.31 569.255V540.95C1213.49 541.715 1209.92 541.97 1206.09 541.97C1193.85 541.97 1190.79 538.91 1190.79 526.67V461.39H1217.31V437.165H1190.79V397.64ZM1245.25 571.04L1374.79 519.53V489.44L1245.25 437.93V467.255L1338.84 504.485L1245.25 541.715V571.04Z" fill="#F2F4F9"/>
</svg>
