<svg width="1440" height="1024" viewBox="0 0 1440 1024" fill="none" xmlns="http://www.w3.org/2000/svg">
<rect width="1440" height="1024" fill="white"/>
<path opacity="0.9" d="M178.65 481.35L64.35 526.8V553.35L178.65 598.8V572.925L96.075 540.075L178.65 507.225V481.35ZM284.087 597H314.462V436.35H282.512V494.85H282.062H282.287C274.862 483.375 261.362 477.525 247.637 477.525C213.437 477.525 196.112 506.55 196.112 537.825C196.112 570 213.212 600.15 248.312 600.15C263.162 600.15 276.212 594.75 283.637 582.15H284.087V597ZM283.637 538.5C283.637 557.625 277.337 576.075 256.187 576.075C236.387 576.075 228.062 556.95 228.062 538.725C228.062 519.6 235.262 501.6 256.187 501.6C276.887 501.6 283.637 519.6 283.637 538.5ZM448.861 546.6C451.111 510.825 431.986 477.525 392.386 477.525C357.061 477.525 332.986 504.075 332.986 538.95C332.986 574.95 355.711 600.15 392.386 600.15C418.711 600.15 437.836 588.45 446.836 561H418.711C416.686 568.2 406.336 576.075 393.511 576.075C375.736 576.075 365.836 566.85 364.936 546.6H448.861ZM364.936 526.35C365.386 517.35 371.236 501.6 391.486 501.6C407.011 501.6 413.986 510.15 416.911 526.35H364.936ZM571.535 480.675H539.81L515.285 560.1H514.835L490.31 480.675H456.785L496.61 597H532.16L571.535 480.675ZM694.955 546.6C697.205 510.825 678.08 477.525 638.48 477.525C603.155 477.525 579.08 504.075 579.08 538.95C579.08 574.95 601.805 600.15 638.48 600.15C664.805 600.15 683.93 588.45 692.93 561H664.805C662.78 568.2 652.43 576.075 639.605 576.075C621.83 576.075 611.93 566.85 611.03 546.6H694.955ZM611.03 526.35C611.48 517.35 617.33 501.6 637.58 501.6C653.105 501.6 660.08 510.15 663.005 526.35H611.03ZM714.804 597H746.754V436.35H714.804V597ZM768.312 538.95C768.312 575.85 791.937 600.15 828.387 600.15C865.062 600.15 888.687 575.85 888.687 538.95C888.687 501.825 865.062 477.525 828.387 477.525C791.937 477.525 768.312 501.825 768.312 538.95ZM800.262 538.95C800.262 520.275 806.787 501.6 828.387 501.6C850.212 501.6 856.737 520.275 856.737 538.95C856.737 557.4 850.212 576.075 828.387 576.075C806.787 576.075 800.262 557.4 800.262 538.95ZM909.461 637.95H941.411V582.6H941.861C949.511 594.075 962.786 600.15 976.736 600.15C1010.71 600.15 1027.81 571.125 1027.81 540.075C1027.81 507 1011.39 477.525 974.936 477.525C960.536 477.525 947.936 483.15 940.286 495.525H939.836V480.675H909.461V637.95ZM968.186 576.075C947.486 576.075 940.286 558.075 940.286 539.175C940.286 520.275 947.036 501.6 967.961 501.6C988.436 501.6 995.861 520.725 995.861 539.175C995.861 558.075 989.111 576.075 968.186 576.075ZM1157.26 546.6C1159.51 510.825 1140.38 477.525 1100.78 477.525C1065.46 477.525 1041.38 504.075 1041.38 538.95C1041.38 574.95 1064.11 600.15 1100.78 600.15C1127.11 600.15 1146.23 588.45 1155.23 561H1127.11C1125.08 568.2 1114.73 576.075 1101.91 576.075C1084.13 576.075 1074.23 566.85 1073.33 546.6H1157.26ZM1073.33 526.35C1073.78 517.35 1079.63 501.6 1099.88 501.6C1115.41 501.6 1122.38 510.15 1125.31 526.35H1073.33ZM1176.21 597H1208.16V544.575C1208.16 524.1 1216.26 507.225 1239.66 507.225C1243.48 507.225 1248.21 507.675 1251.13 508.35V478.65C1249.11 477.975 1246.41 477.525 1244.16 477.525C1228.63 477.525 1212.88 487.65 1207.03 502.275H1206.58V480.675H1176.21V597ZM1261.86 598.8L1376.16 553.35V526.8L1261.86 481.35V507.225L1344.43 540.075L1261.86 572.925V598.8Z" fill="#F2F4F9"/>
</svg>
