<svg width="1440" height="1024" viewBox="0 0 1440 1024" fill="none" xmlns="http://www.w3.org/2000/svg">
<rect width="1440" height="1024" fill="white"/>
<rect width="1440" height="1024" fill="white"/>
<path opacity="0.9" d="M145.27 347.93L15.73 399.44V429.53L145.27 481.04V451.715L51.685 414.485L145.27 377.255V347.93ZM177.045 436.16C178.575 471.095 208.41 482.57 239.01 482.57C269.1 482.57 299.19 471.35 299.19 436.67C299.19 412.19 278.535 404.54 257.37 399.695C236.715 394.85 216.315 393.065 216.315 380.06C216.315 369.35 228.3 367.82 236.46 367.82C249.465 367.82 260.175 371.645 261.195 385.67H295.62C292.815 353.285 266.295 343.595 237.48 343.595C209.175 343.595 180.105 352.265 180.105 385.925C180.105 409.13 201.015 416.525 221.925 421.115C247.935 426.725 262.98 430.55 262.98 441.515C262.98 454.265 249.72 458.345 239.265 458.345C224.985 458.345 211.725 451.97 211.47 436.16H177.045ZM458.083 421.88C460.633 381.335 438.958 343.595 394.078 343.595C354.043 343.595 326.758 373.685 326.758 413.21C326.758 454.01 352.513 482.57 394.078 482.57C423.913 482.57 445.588 469.31 455.788 438.2H423.913C421.618 446.36 409.888 455.285 395.353 455.285C375.208 455.285 363.988 444.83 362.968 421.88H458.083ZM362.968 398.93C363.478 388.73 370.108 370.88 393.058 370.88C410.653 370.88 418.558 380.57 421.873 398.93H362.968ZM492.309 479H528.519V419.585C528.519 396.38 537.699 377.255 564.219 377.255C568.554 377.255 573.909 377.765 577.224 378.53V344.87C574.929 344.105 571.869 343.595 569.319 343.595C551.724 343.595 533.874 355.07 527.244 371.645H526.734V347.165H492.309V479ZM721.725 347.165H685.77L657.975 437.18H657.465L629.67 347.165H591.675L636.81 479H677.1L721.725 347.165ZM750.421 479H786.631V347.165H750.421V479ZM786.631 296.93H750.421V326.765H786.631V296.93ZM953.098 393.575C950.803 359.915 922.243 343.595 891.133 343.595C848.293 343.595 823.813 373.94 823.813 414.995C823.813 454.52 850.588 482.57 890.368 482.57C925.048 482.57 949.273 463.445 953.863 428.51H918.928C916.633 444.575 906.943 455.285 890.113 455.285C867.418 455.285 860.023 432.59 860.023 413.72C860.023 394.34 867.673 370.88 890.878 370.88C905.923 370.88 915.358 378.785 917.653 393.575H953.098ZM1112.02 421.88C1114.57 381.335 1092.89 343.595 1048.01 343.595C1007.98 343.595 980.694 373.685 980.694 413.21C980.694 454.01 1006.45 482.57 1048.01 482.57C1077.85 482.57 1099.52 469.31 1109.72 438.2H1077.85C1075.55 446.36 1063.82 455.285 1049.29 455.285C1029.14 455.285 1017.92 444.83 1016.9 421.88H1112.02ZM1016.9 398.93C1017.41 388.73 1024.04 370.88 1046.99 370.88C1064.59 370.88 1072.49 380.57 1075.81 398.93H1016.9ZM1139.87 436.16C1141.4 471.095 1171.23 482.57 1201.83 482.57C1231.92 482.57 1262.01 471.35 1262.01 436.67C1262.01 412.19 1241.36 404.54 1220.19 399.695C1199.54 394.85 1179.14 393.065 1179.14 380.06C1179.14 369.35 1191.12 367.82 1199.28 367.82C1212.29 367.82 1223 371.645 1224.02 385.67H1258.44C1255.64 353.285 1229.12 343.595 1200.3 343.595C1172 343.595 1142.93 352.265 1142.93 385.925C1142.93 409.13 1163.84 416.525 1184.75 421.115C1210.76 426.725 1225.8 430.55 1225.8 441.515C1225.8 454.265 1212.54 458.345 1202.09 458.345C1187.81 458.345 1174.55 451.97 1174.29 436.16H1139.87ZM1293.92 481.04L1423.46 429.53V399.44L1293.92 347.93V377.255L1387.5 414.485L1293.92 451.715V481.04Z" fill="#F2F4F9"/>
</svg>
