<svg width="1440" height="530" viewBox="0 0 1440 530" fill="none" xmlns="http://www.w3.org/2000/svg">
<rect width="1440" height="530" fill="white"/>
<path opacity="0.9" d="M350.1 238.9L273.9 269.2V286.9L350.1 317.2V299.95L295.05 278.05L350.1 256.15V238.9ZM373.141 316H394.441V271C394.441 255.85 404.641 253.15 408.841 253.15C422.341 253.15 421.741 263.5 421.741 272.5V316H443.041V272.8C443.041 263.05 445.291 253.15 457.291 253.15C469.441 253.15 470.341 261.7 470.341 272.05V316H491.641V264.1C491.641 244 479.791 236.35 463.291 236.35C452.491 236.35 444.391 242.5 439.891 249.25C435.691 239.95 426.991 236.35 417.241 236.35C407.191 236.35 399.091 241 393.541 248.95H393.241V238.45H373.141V316ZM586.629 238.45H564.579L547.629 291.55H547.329L529.779 238.45H506.979L534.279 311.2C536.679 317.35 534.279 325 526.929 325.75C522.729 325.9 518.529 325.3 514.479 325V342.55C518.829 343 523.179 343.3 527.529 343.3C542.229 343.3 549.579 338.2 554.229 325.75L586.629 238.45ZM593.162 334.75H668.162V327.25H593.162V334.75ZM680.012 290.8C680.912 311.35 698.462 318.1 716.462 318.1C734.162 318.1 751.862 311.5 751.862 291.1C751.862 276.7 739.712 272.2 727.262 269.35C715.112 266.5 703.112 265.45 703.112 257.8C703.112 251.5 710.162 250.6 714.962 250.6C722.612 250.6 728.912 252.85 729.512 261.1H749.762C748.112 242.05 732.512 236.35 715.562 236.35C698.912 236.35 681.812 241.45 681.812 261.25C681.812 274.9 694.112 279.25 706.412 281.95C721.712 285.25 730.562 287.5 730.562 293.95C730.562 301.45 722.762 303.85 716.612 303.85C708.212 303.85 700.412 300.1 700.262 290.8H680.012ZM773.779 316H795.079V289.3L803.329 281.35L824.629 316H850.429L817.879 266.95L847.129 238.45H821.929L795.079 266.35V208.9H773.779V316ZM866.061 316H887.361V238.45H866.061V316ZM887.361 208.9H866.061V226.45H887.361V208.9ZM912.233 316H933.533V208.9H912.233V316ZM958.405 316H979.705V208.9H958.405V316ZM1000.23 290.8C1001.13 311.35 1018.68 318.1 1036.68 318.1C1054.38 318.1 1072.08 311.5 1072.08 291.1C1072.08 276.7 1059.93 272.2 1047.48 269.35C1035.33 266.5 1023.33 265.45 1023.33 257.8C1023.33 251.5 1030.38 250.6 1035.18 250.6C1042.83 250.6 1049.13 252.85 1049.73 261.1H1069.98C1068.33 242.05 1052.73 236.35 1035.78 236.35C1019.13 236.35 1002.03 241.45 1002.03 261.25C1002.03 274.9 1014.33 279.25 1026.63 281.95C1041.93 285.25 1050.78 287.5 1050.78 293.95C1050.78 301.45 1042.98 303.85 1036.83 303.85C1028.43 303.85 1020.63 300.1 1020.48 290.8H1000.23ZM1090.84 317.2L1167.04 286.9V269.2L1090.84 238.9V256.15L1145.89 278.05L1090.84 299.95V317.2Z" fill="#F2F4F9"/>
</svg>
