<svg width="1440" height="1024" viewBox="0 0 1440 1024" fill="none" xmlns="http://www.w3.org/2000/svg">
<rect width="1440" height="1024" fill="white"/>
<rect width="1440" height="1024" fill="white"/>
<path opacity="0.9" d="M129.8 382.2L28.2 422.6V446.2L129.8 486.6V463.6L56.4 434.4L129.8 405.2V382.2ZM185.722 350.6H157.322V381.6H140.122V400.6H157.322V461.6C157.322 482.2 172.522 486.2 189.922 486.2C195.522 486.2 201.722 486 206.522 485.2V463C203.522 463.6 200.722 463.8 197.722 463.8C188.122 463.8 185.722 461.4 185.722 451.8V400.6H206.522V381.6H185.722V350.6ZM318.034 440.2C320.034 408.4 303.034 378.8 267.834 378.8C236.434 378.8 215.034 402.4 215.034 433.4C215.034 465.4 235.234 487.8 267.834 487.8C291.234 487.8 308.234 477.4 316.234 453H291.234C289.434 459.4 280.234 466.4 268.834 466.4C253.034 466.4 244.234 458.2 243.434 440.2H318.034ZM243.434 422.2C243.834 414.2 249.034 400.2 267.034 400.2C280.834 400.2 287.034 407.8 289.634 422.2H243.434ZM329.878 451.4C331.078 478.8 354.478 487.8 378.478 487.8C402.078 487.8 425.678 479 425.678 451.8C425.678 432.6 409.478 426.6 392.878 422.8C376.678 419 360.678 417.6 360.678 407.4C360.678 399 370.078 397.8 376.478 397.8C386.678 397.8 395.078 400.8 395.878 411.8H422.878C420.678 386.4 399.878 378.8 377.278 378.8C355.078 378.8 332.278 385.6 332.278 412C332.278 430.2 348.678 436 365.078 439.6C385.478 444 397.278 447 397.278 455.6C397.278 465.6 386.878 468.8 378.678 468.8C367.478 468.8 357.078 463.8 356.878 451.4H329.878ZM478.3 350.6H449.9V381.6H432.7V400.6H449.9V461.6C449.9 482.2 465.1 486.2 482.5 486.2C488.1 486.2 494.3 486 499.1 485.2V463C496.1 463.6 493.3 463.8 490.3 463.8C480.7 463.8 478.3 461.4 478.3 451.8V400.6H499.1V381.6H478.3V350.6ZM513.413 485H541.813V381.6H513.413V485ZM541.813 342.2H513.413V365.6H541.813V342.2ZM564.975 485H593.375V425C593.375 404.8 606.975 401.2 612.575 401.2C630.575 401.2 629.775 415 629.775 427V485H658.175V427.4C658.175 414.4 661.175 401.2 677.175 401.2C693.375 401.2 694.575 412.6 694.575 426.4V485H722.975V415.8C722.975 389 707.175 378.8 685.175 378.8C670.775 378.8 659.975 387 653.975 396C648.375 383.6 636.775 378.8 623.775 378.8C610.375 378.8 599.575 385 592.175 395.6H591.775V381.6H564.975V485ZM742.225 433.4C742.225 466.2 763.225 487.8 795.625 487.8C828.225 487.8 849.225 466.2 849.225 433.4C849.225 400.4 828.225 378.8 795.625 378.8C763.225 378.8 742.225 400.4 742.225 433.4ZM770.625 433.4C770.625 416.8 776.425 400.2 795.625 400.2C815.025 400.2 820.825 416.8 820.825 433.4C820.825 449.8 815.025 466.4 795.625 466.4C776.425 466.4 770.625 449.8 770.625 433.4ZM867.691 485H896.091V430.8C896.091 409.8 902.691 401.2 918.091 401.2C931.291 401.2 936.291 409.6 936.291 426.6V485H964.691V421.4C964.691 395.8 957.091 378.8 926.891 378.8C914.891 378.8 902.491 384.4 895.291 396H894.691V381.6H867.691V485ZM987.045 485H1015.45V381.6H987.045V485ZM1015.45 342.2H987.045V365.6H1015.45V342.2ZM1102.21 445C1102.21 451.2 1101.41 468.8 1079.21 468.8C1070.01 468.8 1061.81 466.2 1061.81 455.6C1061.81 445.2 1069.81 442.2 1078.61 440.4C1087.41 438.8 1097.41 438.6 1102.21 434.4V445ZM1065.01 413.4C1066.01 402.2 1073.01 397.8 1083.81 397.8C1093.81 397.8 1102.21 399.6 1102.21 411.8C1102.21 423.4 1086.01 422.8 1068.61 425.4C1051.01 427.8 1033.41 433.4 1033.41 456.8C1033.41 478 1049.01 487.8 1068.61 487.8C1081.21 487.8 1094.41 484.4 1103.41 475C1103.61 478.4 1104.41 481.8 1105.41 485H1134.21C1131.61 480.8 1130.61 471.4 1130.61 462V408.2C1130.61 383.4 1105.81 378.8 1085.21 378.8C1062.01 378.8 1038.21 386.8 1036.61 413.4H1065.01ZM1153.45 485H1181.85V342.2H1153.45V485ZM1199.21 451.4C1200.41 478.8 1223.81 487.8 1247.81 487.8C1271.41 487.8 1295.01 479 1295.01 451.8C1295.01 432.6 1278.81 426.6 1262.21 422.8C1246.01 419 1230.01 417.6 1230.01 407.4C1230.01 399 1239.41 397.8 1245.81 397.8C1256.01 397.8 1264.41 400.8 1265.21 411.8H1292.21C1290.01 386.4 1269.21 378.8 1246.61 378.8C1224.41 378.8 1201.61 385.6 1201.61 412C1201.61 430.2 1218.01 436 1234.41 439.6C1254.81 444 1266.61 447 1266.61 455.6C1266.61 465.6 1256.21 468.8 1248.01 468.8C1236.81 468.8 1226.41 463.8 1226.21 451.4H1199.21ZM1310.04 486.6L1411.64 446.2V422.6L1310.04 382.2V405.2L1383.44 434.4L1310.04 463.6V486.6Z" fill="#F2F4F9"/>
</svg>
