<svg width="1440" height="1024" viewBox="0 0 1440 1024" fill="none" xmlns="http://www.w3.org/2000/svg">
<rect width="1440" height="1024" fill="white"/>
<rect width="1440" height="1024" fill="white"/>
<path opacity="0.9" d="M213.42 380.78L96.58 427.24V454.38L213.42 500.84V474.39L129.01 440.81L213.42 407.23V380.78ZM237.25 499H269.91V430C269.91 406.77 285.55 402.63 291.99 402.63C312.69 402.63 311.77 418.5 311.77 432.3V499H344.43V432.76C344.43 417.81 347.88 402.63 366.28 402.63C384.91 402.63 386.29 415.74 386.29 431.61V499H418.95V419.42C418.95 388.6 400.78 376.87 375.48 376.87C358.92 376.87 346.5 386.3 339.6 396.65C333.16 382.39 319.82 376.87 304.87 376.87C289.46 376.87 277.04 384 268.53 396.19H268.07V380.09H237.25V499ZM553.098 380.09H519.288L493.298 461.51H492.838L465.928 380.09H430.968L472.828 491.64C476.508 501.07 472.828 512.8 461.558 513.95C455.118 514.18 448.678 513.26 442.468 512.8V539.71C449.138 540.4 455.808 540.86 462.478 540.86C485.018 540.86 496.288 533.04 503.418 513.95L553.098 380.09ZM551.615 527.75H666.615V516.25H551.615V527.75ZM852.455 380.09H818.875L797.025 460.59H796.565L776.325 380.09H744.585L724.805 460.82H724.345L702.495 380.09H667.995L705.715 499H739.525L759.765 419.19H760.225L781.385 499H814.965L852.455 380.09ZM862.679 439.66C862.679 477.38 886.829 502.22 924.089 502.22C961.579 502.22 985.729 477.38 985.729 439.66C985.729 401.71 961.579 376.87 924.089 376.87C886.829 376.87 862.679 401.71 862.679 439.66ZM895.339 439.66C895.339 420.57 902.009 401.48 924.089 401.48C946.399 401.48 953.069 420.57 953.069 439.66C953.069 458.52 946.399 477.61 924.089 477.61C902.009 477.61 895.339 458.52 895.339 439.66ZM1006.96 499H1039.62V445.41C1039.62 424.48 1047.9 407.23 1071.82 407.23C1075.73 407.23 1080.56 407.69 1083.55 408.38V378.02C1081.48 377.33 1078.72 376.87 1076.42 376.87C1060.55 376.87 1044.45 387.22 1038.47 402.17H1038.01V380.09H1006.96V499ZM1099.35 499H1132.01V458.06L1144.66 445.87L1177.32 499H1216.88L1166.97 423.79L1211.82 380.09H1173.18L1132.01 422.87V334.78H1099.35V499ZM1226.59 500.84L1343.43 454.38V427.24L1226.59 380.78V407.23L1311 440.81L1226.59 474.39V500.84Z" fill="#F2F4F9"/>
</svg>
