<svg width="448" height="497" viewBox="0 0 448 497" fill="none" xmlns="http://www.w3.org/2000/svg">
<path d="M303.102 122.306C327.394 122.306 350.69 131.956 367.867 149.133C385.044 166.31 394.694 189.606 394.694 213.898V372.102C394.694 396.394 385.044 419.69 367.867 436.867C350.69 454.044 327.394 463.694 303.102 463.694H144.898C120.606 463.694 97.3096 454.044 80.1328 436.867C62.956 419.69 53.3061 396.394 53.3061 372.102V213.898C53.3061 189.606 62.956 166.31 80.1328 149.133C97.3096 131.956 120.606 122.306 144.898 122.306H303.102ZM303.102 89H144.898C111.803 89.0988 80.0925 102.289 56.691 125.691C33.2894 149.092 20.0988 180.803 20 213.898V372.102C20.0988 405.197 33.2894 436.908 56.691 460.309C80.0925 483.711 111.803 496.901 144.898 497H303.102C336.197 496.901 367.908 483.711 391.309 460.309C414.711 436.908 427.901 405.197 428 372.102V213.898C427.901 180.803 414.711 149.092 391.309 125.691C367.908 102.289 336.197 89.0988 303.102 89V89Z" fill="black"/>
<path d="M300 129C323.339 129 345.722 138.271 362.225 154.775C378.729 171.278 388 193.661 388 217V369C388 392.339 378.729 414.722 362.225 431.225C345.722 447.729 323.339 457 300 457H148C124.661 457 102.278 447.729 85.7746 431.225C69.2714 414.722 60 392.339 60 369V217C60 193.661 69.2714 171.278 85.7746 154.775C102.278 138.271 124.661 129 148 129H300ZM300 97H148C116.203 97.095 85.7359 109.768 63.2521 132.252C40.7683 154.736 28.095 185.203 28 217V369C28.095 400.797 40.7683 431.264 63.2521 453.748C85.7359 476.232 116.203 488.905 148 489H300C331.797 488.905 362.264 476.232 384.748 453.748C407.232 431.264 419.905 400.797 420 369V217C419.905 185.203 407.232 154.736 384.748 132.252C362.264 109.768 331.797 97.095 300 97V97Z" fill="black"/>
<path d="M332 162C327.253 162 322.613 163.408 318.666 166.045C314.72 168.682 311.643 172.43 309.827 176.816C308.01 181.201 307.535 186.027 308.461 190.682C309.387 195.338 311.673 199.614 315.029 202.971C318.386 206.327 322.662 208.613 327.318 209.539C331.973 210.465 336.799 209.99 341.184 208.173C345.57 206.357 349.318 203.28 351.955 199.334C354.592 195.387 356 190.747 356 186C356 182.848 355.379 179.727 354.173 176.816C352.967 173.904 351.199 171.258 348.971 169.029C346.742 166.801 344.096 165.033 341.184 163.827C338.273 162.621 335.152 162 332 162V162Z" fill="black"/>
<path d="M224.792 219.334C239.365 219.325 253.614 223.64 265.734 231.731C277.855 239.823 287.304 251.327 292.884 264.79C298.465 278.252 299.928 293.068 297.087 307.362C294.245 321.655 287.229 334.785 276.924 345.09C266.619 355.395 253.489 362.412 239.195 365.253C224.901 368.094 210.086 366.632 196.623 361.051C183.161 355.47 171.656 346.022 163.564 333.901C155.473 321.78 151.158 307.532 151.167 292.959C151.2 273.442 158.967 254.734 172.767 240.934C186.568 227.134 205.275 219.367 224.792 219.334V219.334ZM224.792 186C203.636 186.041 182.968 192.353 165.398 204.137C147.829 215.921 134.147 232.649 126.081 252.207C118.016 271.765 115.929 293.274 120.085 314.018C124.24 334.761 134.451 353.807 149.428 368.749C164.405 383.69 183.474 393.857 204.227 397.964C224.98 402.071 246.485 399.934 266.024 391.823C285.563 383.712 302.259 369.991 314.002 352.394C325.745 334.797 332.008 314.114 332 292.959C331.995 278.893 329.216 264.967 323.823 251.976C318.431 238.985 310.529 227.185 300.572 217.251C290.615 207.317 278.796 199.444 265.793 194.081C252.79 188.719 238.857 185.973 224.792 186V186Z" fill="black"/>
<path d="M224.823 230.349C237.217 230.342 249.335 234.011 259.643 240.893C269.952 247.774 277.987 257.559 282.734 269.008C287.48 280.458 288.724 293.058 286.307 305.214C283.891 317.37 277.923 328.537 269.159 337.301C260.395 346.065 249.229 352.033 237.072 354.449C224.916 356.865 212.316 355.622 200.866 350.875C189.417 346.129 179.633 338.093 172.751 327.785C165.87 317.477 162.2 305.359 162.207 292.965C162.235 276.367 168.841 260.456 180.578 248.72C192.315 236.983 208.225 230.377 224.823 230.349V230.349ZM224.823 202C206.831 202.035 189.253 207.403 174.311 217.425C159.368 227.447 147.732 241.674 140.873 258.307C134.014 274.94 132.239 293.233 135.773 310.875C139.307 328.516 147.991 344.714 160.728 357.422C173.466 370.129 189.684 378.776 207.334 382.269C224.983 385.762 243.272 383.944 259.89 377.046C276.507 370.148 290.706 358.478 300.693 343.513C310.68 328.547 316.007 310.957 316 292.965C315.995 281.002 313.632 269.159 309.046 258.11C304.46 247.062 297.74 237.027 289.272 228.578C280.803 220.13 270.752 213.433 259.693 208.873C248.634 204.312 236.785 201.977 224.823 202V202Z" fill="black"/>
</svg>
