<svg width="512" height="512" viewBox="0 0 512 512" fill="none" xmlns="http://www.w3.org/2000/svg">
<path d="M256 512C397.385 512 512 397.385 512 256C512 114.615 397.385 0 256 0C114.615 0 0 114.615 0 256C0 397.385 114.615 512 256 512Z" fill="#474A8A"/>
<path d="M160.1 230.699C170.1 230.699 176.7 232.499 180.1 236.199C183.4 239.899 184.2 246.199 182.5 255.199C180.7 264.499 177.2 271.199 172 275.199C166.8 279.199 158.9 281.199 148.3 281.199H132.3L142.1 230.699H160.1ZM96 332.399H122.3L128.5 300.299H151C160.9 300.299 169.1 299.299 175.5 297.199C181.9 295.099 187.8 291.599 193 286.699C197.4 282.599 201 278.199 203.7 273.299C206.4 268.399 208.4 262.999 209.5 257.099C212.3 242.799 210.2 231.599 203.2 223.699C196.2 215.799 185.1 211.699 169.9 211.699H119.3L96 332.399Z" fill="white"/>
<path d="M228.9 179.6H255L248.8 211.7H272C286.6 211.7 296.7 214.3 302.3 219.4C307.9 224.5 309.5 232.8 307.3 244.2L296.4 300.4H269.9L280.3 247C281.5 240.9 281 236.8 279 234.6C276.9 232.4 272.6 231.3 265.9 231.3H245L231.6 300.4H205.5L228.9 179.6Z" fill="white"/>
<path d="M365.3 230.699C375.3 230.699 381.9 232.499 385.3 236.199C388.6 239.899 389.4 246.199 387.7 255.199C385.9 264.499 382.4 271.199 377.2 275.199C372 279.199 364.1 281.199 353.5 281.199H337.5L347.3 230.699H365.3ZM301.2 332.399H327.5L333.7 300.299H356.2C366.1 300.299 374.3 299.299 380.7 297.199C387.1 295.099 392.9 291.599 398.2 286.699C402.6 282.599 406.2 278.199 408.9 273.299C411.6 268.399 413.6 262.999 414.7 257.099C417.5 242.799 415.4 231.599 408.4 223.699C401.4 215.699 390.3 211.699 375.1 211.699H324.5L301.2 332.399Z" fill="white"/>
</svg>
